<?xml version="1.0" encoding="utf-8"?><svg version="1.1" id="Layer_1" xmlns="http://www.w3.org/2000/svg" xmlns:xlink="http://www.w3.org/1999/xlink" x="0px" y="0px" viewBox="0 0 123.1 104.65" style="enable-background:new 0 0 123.1 104.65" xml:space="preserve"><style type="text/css">.st0{fill-rule:evenodd;clip-rule:evenodd;stroke:#000000;stroke-width:0.216;stroke-miterlimit:2.6131;}</style><g><path class="st0" d="M94.72,40.87c-3.81,0-6.9,3.09-6.9,6.9s3.09,6.9,6.9,6.9c3.81,0,6.9-3.09,6.9-6.9S98.53,40.87,94.72,40.87 L94.72,40.87z M28.38,40.87c3.81,0,6.9,3.09,6.9,6.9s-3.09,6.9-6.9,6.9c-3.81,0-6.9-3.09-6.9-6.9S24.56,40.87,28.38,40.87 L28.38,40.87z M12.1,0.34l0.53,7.99c0.06,0.9,0.13,1.57,0.2,2.13c0.17,1.53,0.21,1.88-1.13,3.95C-1.79,35.26-2.12,51.2,3.68,61.75 c3.47,6.31,9.12,10.66,15.46,12.98c0.17,0.06,0.34,0.12,0.52,0.18c0.02,5.05-0.23,10.06-0.81,15c-0.59,5-1.53,9.89-2.91,14.63h3.39 c1.44-4.98,2.42-9.07,3.03-14.22c0.56-4.71,0.81-9.52,0.83-14.42c5.17,1.15,10.6,1.02,15.54-0.41 c9.43-2.73,17.14-10.16,18.22-22.53l-3.53-0.3c-0.94,10.69-7.57,17.09-15.68,19.45c-5.55,1.61-11.78,1.35-17.4-0.7 c-5.58-2.04-10.54-5.85-13.57-11.36c-5.23-9.51-4.77-24.17,7.88-43.71c2.03-3.14,1.97-3.71,1.68-6.26 c-0.06-0.53-0.13-1.17-0.18-1.97l-0.53-7.99L12.1,0.34L12.1,0.34z M28.38,45.59c1.21,0,2.18,0.98,2.18,2.18 c0,1.21-0.98,2.18-2.18,2.18c-1.21,0-2.18-0.98-2.18-2.18C26.19,46.57,27.17,45.59,28.38,45.59L28.38,45.59z M110.99,0.34 l-0.53,7.99c-0.06,0.9-0.13,1.57-0.2,2.13c-0.17,1.53-0.21,1.88,1.13,3.95c13.49,20.85,13.82,36.79,8.02,47.34 c-3.47,6.31-9.12,10.66-15.46,12.98c-0.17,0.06-0.34,0.12-0.52,0.18c-0.02,5.05,0.23,10.06,0.81,15c0.59,5,1.53,9.89,2.91,14.63 h-3.39c-1.44-4.98-2.42-9.07-3.03-14.22c-0.56-4.71-0.81-9.52-0.83-14.42c-5.17,1.15-10.6,1.02-15.54-0.41 c-9.43-2.73-17.14-10.16-18.22-22.53l3.53-0.3c0.94,10.69,7.57,17.09,15.68,19.45c5.55,1.61,11.78,1.35,17.4-0.7 c5.58-2.04,10.54-5.85,13.57-11.36c5.23-9.51,4.77-24.17-7.88-43.71c-2.03-3.14-1.97-3.71-1.68-6.26c0.06-0.53,0.13-1.17,0.18-1.97 l0.53-7.99L110.99,0.34L110.99,0.34z M94.72,45.59c-1.21,0-2.18,0.98-2.18,2.18c0,1.21,0.98,2.18,2.18,2.18 c1.21,0,2.18-0.98,2.18-2.18C96.91,46.57,95.93,45.59,94.72,45.59L94.72,45.59z"/></g></svg>