<?xml version="1.0" encoding="utf-8"?><svg version="1.1" id="Layer_1" xmlns="http://www.w3.org/2000/svg" xmlns:xlink="http://www.w3.org/1999/xlink" x="0px" y="0px" viewBox="0 0 122.88 95.14" style="enable-background:new 0 0 122.88 95.14" xml:space="preserve"><g><path d="M95.18,26.66c0-1.88,1.52-3.4,3.4-3.4c1.88,0,3.4,1.52,3.4,3.4v17.51h17.51c1.88,0,3.4,1.52,3.4,3.4 c0,1.88-1.52,3.4-3.4,3.4h-17.51v17.51c0,1.88-1.52,3.4-3.4,3.4c-1.88,0-3.4-1.52-3.4-3.4V50.96H77.67c-1.88,0-3.4-1.52-3.4-3.4 c0-1.88,1.52-3.4,3.4-3.4h17.51V26.66L95.18,26.66z M10.82,22.49H35.9L57.26,1c1.32-1.33,3.46-1.33,4.79-0.01 c0.67,0.66,1,1.53,1,2.4h0.01v88.36c0,1.88-1.52,3.4-3.4,3.4c-0.95,0-1.81-0.39-2.43-1.02L36.08,76.29H10.82 c-2.98,0-5.68-1.22-7.64-3.18C1.22,71.15,0,68.45,0,65.47V33.31c0-2.98,1.22-5.68,3.17-7.64C5.13,23.71,7.84,22.49,10.82,22.49 L10.82,22.49z M37.3,29.28H10.82c-1.1,0-2.11,0.45-2.84,1.19c-0.73,0.73-1.19,1.74-1.19,2.84v32.16c0,1.1,0.45,2.11,1.19,2.84 c0.73,0.73,1.74,1.19,2.84,1.19H37.3v0.02c0.77,0,1.54,0.26,2.18,0.79l16.79,14.15V11.61L39.88,28.09 C39.26,28.82,38.33,29.28,37.3,29.28L37.3,29.28z"/></g></svg>