<?xml version="1.0" encoding="utf-8"?><svg version="1.1" id="Layer_1" xmlns="http://www.w3.org/2000/svg" xmlns:xlink="http://www.w3.org/1999/xlink" x="0px" y="0px" viewBox="0 0 122.88 99.44" style="enable-background:new 0 0 122.88 99.44" xml:space="preserve"><g><path d="M84.03,53.27c-1.96,0-3.55-1.59-3.55-3.55c0-1.96,1.59-3.55,3.55-3.55h35.3c1.96,0,3.55,1.59,3.55,3.55 c0,1.96-1.59,3.55-3.55,3.55H84.03L84.03,53.27z M11.31,23.51h26.22L59.85,1.04c1.38-1.39,3.62-1.39,5-0.01 c0.7,0.69,1.04,1.6,1.04,2.51h0.01v92.36c0,1.96-1.59,3.55-3.55,3.55c-0.99,0-1.89-0.41-2.54-1.07L37.72,79.74H11.31 c-3.11,0-5.94-1.27-7.99-3.32C1.27,74.37,0,71.55,0,68.43V34.82c0-3.11,1.27-5.94,3.32-7.99C5.37,24.78,8.19,23.51,11.31,23.51 L11.31,23.51z M38.99,30.61H11.31c-1.15,0-2.21,0.47-2.97,1.24c-0.76,0.76-1.24,1.82-1.24,2.97v33.62c0,1.15,0.48,2.2,1.24,2.97 c0.77,0.77,1.82,1.24,2.97,1.24h27.68v0.02c0.8,0,1.61,0.27,2.27,0.83l17.55,14.79V12.13L41.69,29.36 C41.03,30.12,40.07,30.61,38.99,30.61L38.99,30.61z"/></g></svg>