<?xml version="1.0" encoding="utf-8"?><svg version="1.1" id="Layer_1" xmlns="http://www.w3.org/2000/svg" xmlns:xlink="http://www.w3.org/1999/xlink" x="0px" y="0px" viewBox="0 0 106.09 122.88" style="enable-background:new 0 0 106.09 122.88" xml:space="preserve"><g><path d="M11.3,89.02c2.07,1.25,2.74,3.94,1.49,6.01c-1.25,2.07-3.94,2.74-6.01,1.49c-2.05-1.24-3.77-3-4.96-5.1 C0.66,89.38,0,87.03,0,84.56V43.02c0-3.85,1.57-7.34,4.1-9.87c2.53-2.53,6.02-4.1,9.87-4.1h32.4L73.96,1.29 c1.7-1.71,4.47-1.72,6.18-0.02c0.86,0.85,1.29,1.98,1.29,3.1h0.01v22.75c0,2.42-1.96,4.39-4.39,4.39c-2.42,0-4.39-1.96-4.39-4.39 V14.99l-21.16,21.3c-0.8,0.94-2,1.54-3.33,1.54h-34.2c-1.43,0-2.73,0.59-3.67,1.53c-0.94,0.94-1.53,2.24-1.53,3.67v41.54 c0,0.94,0.24,1.8,0.66,2.54C9.87,87.89,10.52,88.55,11.3,89.02L11.3,89.02z M14.21,118.77c-1.71,1.71-4.49,1.71-6.2,0 s-1.71-4.49,0-6.2L98.6,21.98c1.71-1.71,4.49-1.71,6.2,0s1.71,4.49,0,6.2L14.21,118.77L14.21,118.77z M72.67,72.31 c0-2.42,1.96-4.39,4.39-4.39c2.42,0,4.39,1.96,4.39,4.39v46.18c0,2.42-1.96,4.39-4.39,4.39c-1.18,0-2.24-0.46-3.03-1.21 l-22.86-18.62c-1.87-1.52-2.16-4.28-0.63-6.15c1.52-1.87,4.28-2.16,6.15-0.63l15.99,13.02V72.31L72.67,72.31z"/></g></svg>